PathFileType	4	(X/Y/Z)	C:\Users\Basilio\Documents\Thesis Gigler\squatting_fais\c3dfiles\019\SLS_back_pre2\markers_experimental.trc
DataRate	CameraRate	NumFrames	NumMarkers	Units	OrigDataRate	OrigDataStartFrame	OrigNumFrames
200.000000	200.000000	4	59	mm	200.000000	370	1482
Frame#	Time	FHD			LBHD			RBHD			C7			T10			CLAV			LSHO			LUUPA			LMUPA			LDUPA			LLEP			LMEP			LRAD			LUL			LRFIN			RSHO			RUPA1			RMUPA			RDUPA			RLEP			RMEP			RRAD			RUL			RUFIN			LASI			RASI			USACR			LSACR			RSACR			LTHI1			LTHI2			LTHI3			LTHI4			LLFC			LTIB1			LTIB2			LTIB3			LTIB4			LLMAL			LMMAL			LHEE			LMT1			LMT2			LMT5			RTHI			RTHI2			RTHI3			RTHI4			RLFC			RTIB1			RTIB2			RTIB3			RTIB4			RLMAL			RMMAL			RHEE			RMT1			RMT2			RMT5			
		X1	Y1	Z1	X2	Y2	Z2	X3	Y3	Z3	X4	Y4	Z4	X5	Y5	Z5	X6	Y6	Z6	X7	Y7	Z7	X8	Y8	Z8	X9	Y9	Z9	X10	Y10	Z10	X11	Y11	Z11	X12	Y12	Z12	X13	Y13	Z13	X14	Y14	Z14	X15	Y15	Z15	X16	Y16	Z16	X17	Y17	Z17	X18	Y18	Z18	X19	Y19	Z19	X20	Y20	Z20	X21	Y21	Z21	X22	Y22	Z22	X23	Y23	Z23	X24	Y24	Z24	X25	Y25	Z25	X26	Y26	Z26	X27	Y27	Z27	X28	Y28	Z28	X29	Y29	Z29	X30	Y30	Z30	X31	Y31	Z31	X32	Y32	Z32	X33	Y33	Z33	X34	Y34	Z34	X35	Y35	Z35	X36	Y36	Z36	X37	Y37	Z37	X38	Y38	Z38	X39	Y39	Z39	X40	Y40	Z40	X41	Y41	Z41	X42	Y42	Z42	X43	Y43	Z43	X44	Y44	Z44	X45	Y45	Z45	X46	Y46	Z46	X47	Y47	Z47	X48	Y48	Z48	X49	Y49	Z49	X50	Y50	Z50	X51	Y51	Z51	X52	Y52	Z52	X53	Y53	Z53	X54	Y54	Z54	X55	Y55	Z55	X56	Y56	Z56	X57	Y57	Z57	X58	Y58	Z58	X59	Y59	Z59	

371	1.85	-250.2388610839844	1720.1552734375	-661.2943115234376	-383.3952026367188	1688.734741210938	-799.491882324219	-382.9796447753907	1684.072631835938	-659.6140747070314	-409.1325988769532	1501.425170898438	-719.0320434570314	-421.4588317871095	1209.992065429688	-719.0795288085939	-269.8104858398438	1467.671997070313	-731.0393066406251	-331.0219116210938	1501.92041015625	-872.6076660156252	-203.1898498535157	1448.380981445313	-925.8169555664065	-177.1418762207032	1449.980346679688	-884.149841308594	-136.2133331298828	1435.860473632813	-927.2180175781252	-71.29918670654298	1387.619262695313	-949.3598632812502	-79.78319549560548	1336.318725585938	-920.2993164062502	171.8333892822266	1403.517822265625	-876.049743652344	172.9541625976563	1354.039672851563	-919.2317504882815	246.4955291748047	1415.432495117188	-882.621765136719	-311.1916198730469	1495.496826171875	-591.9262695312501	-192.1893615722657	1387.035400390625	-508.5310058593751	-161.4602508544922	1416.030639648438	-538.5656127929689	-127.6392059326172	1371.425048828125	-518.5651855468751	-53.33722305297853	1353.317138671875	-533.4869384765626	-71.37893676757814	1306.7744140625	-560.8050537109376	186.6455230712891	1383.614379882813	-606.2194824218751	195.8288116455079	1326.674438476563	-575.3881835937501	269.8109741210938	1386.460083007813	-598.3178100585939	-263.7531127929688	1019.916809082031	-852.4285278320315	-241.6634826660157	1005.816223144531	-646.3547973632814	-415.9704589843751	1078.477416992188	-728.0297851562501	-422.4067687988282	1047.617065429688	-758.0247802734376	-414.9902648925782	1045.642456054688	-700.9540405273439	-259.4764099121094	765.4199218750001	-931.2039794921877	-204.7315216064454	700.7412719726564	-935.299499511719	-160.9455871582032	716.9568481445314	-920.4795532226565	-214.6677246093751	641.5750122070314	-925.5679931640627	-204.4536743164063	549.4732055664064	-915.4661865234377	-207.8352203369141	402.9714660644532	-889.8530883789065	-277.8634948730469	389.501190185547	-941.7432250976565	-246.2026977539063	370.3863220214844	-918.8450927734377	-281.6633300781251	297.9098510742188	-885.9710693359377	-398.2290954589845	210.4316406250001	-909.2859497070315	-377.2955017089844	209.2692260742188	-829.549255371094	-474.5748596191407	196.8218231201172	-859.2954711914065	-289.5605773925782	92.10489654541017	-847.972595214844	-282.3856811523438	92.77147674560548	-885.6890869140627	-335.4127807617188	87.2287063598633	-935.1949462890627	-282.6269531250001	798.3101196289065	-585.5754394531251	-244.379623413086	745.0789794921876	-598.7262573242189	-220.2347717285157	753.4422607421876	-622.3023681640626	-272.6010742187501	669.7111816406251	-602.0180664062501	-317.2112426757813	510.3311767578126	-640.6485595703126	-289.8460998535157	332.8363037109376	-717.0370483398439	-344.9934692382813	251.4691314697266	-666.2104492187501	-311.5549316406251	249.9715270996094	-700.2307128906251	-327.6661376953126	213.3874511718751	-743.9089355468751	-391.0023498535157	128.1571197509766	-704.3399658203126	-378.0885925292969	136.6612701416016	-780.6582641601565	-458.9771423339845	106.3946304321289	-754.3474731445314	-318.3859863281251	26.31145668029786	-783.6592407226565	-254.4729003906251	59.47142410278322	-739.8085327148439	-292.8178100585938	48.45909118652345	-684.3499755859376	
372	1.855	-250.1757965087891	1720.2177734375	-661.4126586914064	-383.3446350097657	1688.579711914063	-799.375427246094	-382.8844299316407	1684.109497070313	-659.5045776367189	-408.9882812500001	1501.431518554688	-718.9774169921876	-421.307342529297	1209.996459960938	-719.0486450195314	-269.6498413085938	1467.553466796875	-730.8654174804689	-330.9109191894532	1501.864379882813	-872.8712158203127	-202.8815917968751	1448.3095703125	-925.6829223632815	-176.789047241211	1449.92578125	-884.0225830078127	-135.9439849853516	1435.85986328125	-927.117370605469	-70.97845458984376	1387.701171875	-949.2292480468752	-79.43680572509767	1336.3173828125	-920.1827392578127	171.9554595947266	1403.840454101563	-875.7825317382815	173.3261260986328	1354.288208007813	-918.9816894531252	246.8870239257813	1415.74560546875	-882.3010253906252	-311.2029724121094	1495.629150390625	-591.8331298828126	-192.1836853027344	1387.186401367188	-508.435272216797	-161.4194030761719	1416.187744140625	-538.4577636718751	-127.6864547729492	1371.578735351563	-518.4953002929689	-53.31624221801759	1353.70947265625	-533.4768676757814	-71.2657928466797	1307.042846679688	-560.8129882812501	186.7513427734375	1384.094970703125	-606.1825561523439	195.9535675048829	1327.14208984375	-575.2800903320314	269.9340820312501	1386.896240234375	-598.2836914062501	-263.6539611816407	1019.950866699219	-852.3479003906252	-241.5449523925782	1005.736145019531	-646.2773437500001	-415.9973449707032	1078.413940429688	-727.9916992187501	-422.3272399902345	1047.606323242188	-757.9461669921876	-414.8433837890626	1045.631469726563	-700.9970703125001	-259.1029357910157	765.4918823242189	-931.1369628906252	-204.2428894042969	700.9111938476564	-935.2380981445315	-160.4351501464844	717.0693359375001	-920.2803344726565	-214.1429595947266	641.7244873046876	-925.482849121094	-204.0794219970704	549.6453857421876	-915.4064941406252	-207.6711425781251	403.1488342285157	-890.1666259765627	-278.2553100585938	390.1936645507814	-941.5646972656252	-246.3601989746094	370.6912231445313	-918.7984619140627	-282.6218872070313	298.6830749511719	-885.7075805664065	-399.4615478515626	211.709701538086	-909.1096191406252	-378.4866638183594	210.4675598144532	-829.3213500976565	-475.9270019531251	198.6967468261719	-859.0491943359377	-291.5333862304688	92.82456970214845	-847.7896118164065	-287.5312805175782	91.4913787841797	-886.6215820312502	-337.8977966308594	88.33021545410158	-935.0325317382815	-282.5809020996094	798.288024902344	-585.7111206054689	-244.4022064208985	745.2225952148439	-599.5878295898439	-220.1902465820313	753.3551025390626	-622.4997558593751	-272.5432739257813	669.5919189453126	-602.1091918945314	-317.2875671386719	510.4056396484376	-640.7386474609376	-289.9697570800782	332.7642211914063	-717.2511596679689	-344.8710021972657	251.4386596679688	-666.3442382812501	-311.7008361816407	249.7051239013672	-700.4757080078126	-327.7620849609376	213.3745880126954	-744.1201171875001	-391.044158935547	128.173095703125	-704.4422607421876	-378.1484985351563	136.5047302246094	-780.7266235351565	-458.5003967285157	107.0274887084961	-754.2732543945314	-322.0617065429688	24.51422500610352	-783.6530761718752	-254.4295959472657	59.33409881591798	-739.9351806640626	-292.7935180664063	48.53020095825197	-684.4262084960939	
373	1.86	-250.1080627441407	1720.30029296875	-661.2714233398439	-383.4778747558594	1688.475708007813	-799.2673339843752	-382.7679138183594	1684.265625	-659.3461914062501	-408.7527160644532	1501.406372070313	-718.9335937500001	-421.049285888672	1209.999267578125	-718.9519042968751	-269.4989318847657	1467.581665039063	-730.6431274414064	-330.5044860839844	1501.69482421875	-872.6040039062502	-202.1759033203126	1448.0517578125	-925.4954223632815	-176.4394073486328	1449.756103515625	-883.8657836914065	-135.6784362792969	1435.789794921875	-927.0083618164065	-70.62366485595705	1387.646118164063	-949.1237792968752	-78.81629180908205	1335.95947265625	-919.969909667969	172.2867431640625	1404.058715820313	-875.561218261719	173.8087768554688	1354.439453125	-918.6883544921877	247.154769897461	1415.983764648438	-881.909606933594	-311.0549316406251	1495.619995117188	-591.5657958984376	-192.117660522461	1387.345947265625	-508.3266906738282	-161.3825073242188	1416.355590820313	-538.3463745117189	-127.7372970581055	1371.748046875	-518.4260864257814	-53.31824493408205	1353.847900390625	-533.4139404296876	-71.14771270751955	1307.25048828125	-560.8523559570314	186.6815643310547	1384.6259765625	-606.1897583007814	196.0236206054688	1327.620727539063	-575.1776123046876	269.7135314941407	1387.434936523438	-598.2615966796876	-263.6175231933594	1019.923278808594	-852.292907714844	-241.5219726562501	1005.606018066406	-646.1433715820314	-415.945526123047	1078.393432617188	-727.9340820312501	-422.2208557128907	1047.60595703125	-758.0009155273439	-414.8156738281251	1045.61767578125	-700.9082641601564	-258.6619567871094	765.5684814453126	-931.0849609375002	-203.7458953857422	701.0076293945314	-935.0510864257815	-160.027572631836	717.2604980468751	-920.113708496094	-213.6651458740235	641.8153076171876	-925.5435180664065	-203.7796630859376	549.8807373046876	-915.3757934570315	-208.1461944580079	403.3837280273439	-889.7352294921877	-278.5643920898438	390.8079528808595	-941.4344482421877	-246.6843872070313	371.1237487792969	-918.720886230469	-283.4326782226563	299.2950134277344	-885.5576782226565	-400.9707641601564	213.1803588867188	-908.9848632812502	-379.6522216796876	211.6967010498047	-829.1027832031252	-477.3020935058595	200.5392303466797	-858.7016601562502	-286.1184387207032	97.69528961181643	-843.218444824219	-289.2194213867188	93.30502319335939	-885.8523559570315	-339.7526245117188	89.28379821777345	-934.662048339844	-282.5820312500001	798.2209472656252	-585.7139892578126	-244.2910461425782	744.9513549804689	-598.8474731445314	-220.1895294189454	753.2924194335939	-622.6328735351564	-272.5082397460938	669.5494384765626	-602.1853637695314	-317.3844299316407	510.2159423828126	-640.8608398437501	-290.0255126953126	332.7721862792969	-717.4546508789064	-344.8374938964844	251.3542480468751	-666.4204101562501	-311.7619934082032	249.6248626708985	-700.6403808593751	-327.8257446289063	213.3264465332032	-744.2155761718751	-391.0889587402345	128.1317138671875	-704.5518798828126	-378.1211242675782	136.4190216064453	-780.7954711914065	-458.9850463867189	106.4356994628907	-754.3327636718751	-318.4692382812501	26.26801490783692	-783.7484130859377	-254.5180969238282	59.39134216308595	-739.9072875976564	-292.7875976562501	48.52327728271486	-684.4362792968751	
374	1.865	-250.0505523681641	1720.463012695313	-661.4290771484376	-383.3128967285157	1688.28076171875	-799.1880493164065	-382.6583862304688	1684.053955078125	-659.3001708984376	-408.6770935058595	1501.337158203125	-718.9129028320314	-420.9965209960939	1209.973388671875	-718.9574584960939	-269.2764282226563	1467.53369140625	-730.4819946289064	-330.3821411132813	1501.62841796875	-872.7373657226565	-201.9250640869141	1447.95947265625	-925.421569824219	-176.1586303710938	1449.569702148438	-883.6972656250002	-135.3713989257813	1435.717407226563	-926.9013671875002	-70.24383544921876	1387.630859375	-949.000183105469	-78.56356811523439	1335.889526367188	-919.9248046875002	172.5281372070313	1404.22802734375	-875.364685058594	174.1397857666016	1354.558959960938	-918.4000244140627	247.4623107910157	1416.159912109375	-881.5880126953127	-310.9724731445313	1495.549438476563	-591.4205932617189	-192.0930633544922	1387.4990234375	-508.2537841796876	-161.5030212402344	1416.472045898438	-538.2662963867189	-127.631950378418	1371.931274414063	-518.3691406250001	-53.37657928466798	1353.953247070313	-533.5205688476564	-71.11133575439455	1307.461059570313	-560.7310791015626	186.7503051757813	1385.065673828125	-606.0562744140626	196.2073211669922	1328.044799804688	-575.0459594726564	269.8231506347657	1387.900756835938	-597.7337036132814	-263.4621582031251	1019.920471191406	-852.184997558594	-241.4486083984376	1005.562194824219	-646.1234741210939	-415.7528381347657	1078.503295898438	-727.9567871093751	-422.1310424804689	1047.6298828125	-757.9530029296876	-414.8196716308595	1045.649780273438	-700.9224243164064	-258.2811889648438	765.6548461914064	-930.9924926757815	-203.3485565185547	701.1622314453126	-934.941589355469	-159.6573486328125	717.4064941406251	-919.893005371094	-213.1514587402344	641.9598388671876	-925.3662719726565	-203.2249298095704	550.0243530273439	-915.222351074219	-208.3925933837891	403.6414794921876	-889.550476074219	-278.7914733886719	391.2655639648439	-941.352478027344	-247.0897521972657	371.6793212890626	-918.6588134765627	-284.5661621093751	300.2870788574219	-885.4051513671877	-402.5071716308595	214.7397918701172	-908.8049316406252	-381.1629028320313	213.1532135009766	-828.9217529296877	-478.6836853027345	202.4628295898438	-858.5251464843752	-293.1177978515626	96.85021972656253	-845.9948730468752	-291.5248107910157	94.1550979614258	-885.5906372070315	-341.9589843750001	90.19409942626955	-934.5687255859377	-282.4522399902344	798.082702636719	-585.7048950195314	-244.3965148925782	745.0228881835939	-599.6416625976564	-220.2199401855469	753.2337646484376	-622.7666015625001	-272.4858093261719	669.4317016601564	-602.2133789062501	-317.4064025878907	510.3296203613282	-640.8969726562501	-290.0581665039063	332.7321472167969	-717.5888061523439	-344.7939147949219	251.304916381836	-666.5297241210939	-311.7117919921876	249.5674133300782	-700.7742919921876	-327.8446960449219	213.3436584472657	-744.3732910156251	-391.0716552734376	128.130844116211	-704.6008911132814	-378.2912597656251	136.4326324462891	-780.916687011719	-458.5673828125001	106.9619216918946	-754.3081054687501	-322.0255126953126	24.55564880371094	-783.653991699219	-254.3981628417969	59.34591293334962	-740.0284423828126	-292.8121643066407	48.58265686035158	-684.4631347656251	
